<svg viewBox="0 0 40.97 42.59" xmlns="http://www.w3.org/2000/svg" xmlns:xlink="http://www.w3.org/1999/xlink"><linearGradient id="a" gradientUnits="userSpaceOnUse" x1="7.44" x2="31.38" y1="34.35" y2="10.41"><stop offset=".01" stop-color="#fff" stop-opacity=".7"/><stop offset="1" stop-color="#fff"/></linearGradient><linearGradient id="b" x1="7.35" x2="22.14" xlink:href="#a" y1="33.92" y2="19.12"/><path d="m39.51 22.69a10 10 0 0 1 -9.88 10h-19.75a9.83 9.83 0 0 1 -2.88-19.25 10 10 0 0 1 9.82-9 9.72 9.72 0 0 1 9.77 8.24h3.07a10 10 0 0 1 9.85 10.01z" fill="url(#a)"/><path d="m41 13.39a9.88 9.88 0 1 1 -13.42-13.39 9.89 9.89 0 0 0 8.69 14.57 9.93 9.93 0 0 0 4.73-1.18z" fill="#fff"/><path d="m27.17 26.71a6.16 6.16 0 0 1 -6.11 6.17h-12.21a6.07 6.07 0 0 1 -6.1-6.07 6 6 0 0 1 1.79-4.3 6.14 6.14 0 0 1 2.52-1.51 6.18 6.18 0 0 1 6.07-5.55 6 6 0 0 1 6 5.1h1.9a6.16 6.16 0 0 1 6.14 6.16z" fill="url(#b)"/><g fill="#fff"><path d="m8.2 37.61h.71c.45 0 1.09 0 1.83-.09s1.61-.13 2.5-.26c.45-.07.9-.16 1.36-.27a10.72 10.72 0 0 0 1.33-.41l.76-.24c.29-.06.59-.11.88-.15a7.13 7.13 0 0 1 1.6 0 8.73 8.73 0 0 1 2.65.74 9.83 9.83 0 0 1 1.67 1 6.8 6.8 0 0 1 .56.48l-.7-.15c-.44-.09-1.06-.22-1.79-.32a15.64 15.64 0 0 0 -2.46-.16l-.66.05-.66.08-.61.14-.68.23c-.26.08-.53.18-.79.25s-.53.13-.8.17a9.09 9.09 0 0 1 -1.54.14 11.4 11.4 0 0 1 -2.69-.28 11.1 11.1 0 0 1 -1.81-.58c-.43-.24-.66-.37-.66-.37z" opacity=".9"/><path d="m33.27 41.58h-.71c-.45 0-1.08-.08-1.82-.16s-1.6-.18-2.49-.35c-.44-.09-.89-.2-1.34-.32a12.12 12.12 0 0 1 -1.32-.46l-.76-.29-.83-.22a7.88 7.88 0 0 0 -1.6-.05 8.44 8.44 0 0 0 -2.68.64 9 9 0 0 0 -1.7.92 4.13 4.13 0 0 0 -.58.45l.7-.12c.44-.08 1.07-.18 1.8-.25a15.11 15.11 0 0 1 2.46-.07c.22 0 .44.05.66.07l.66.11a5.87 5.87 0 0 0 .6.16l.68.25c.26.1.52.21.78.29s.52.15.79.2a10.48 10.48 0 0 0 1.54.2 11.24 11.24 0 0 0 2.69-.19 10.62 10.62 0 0 0 1.84-.51 4.22 4.22 0 0 0 .63-.3z" opacity=".9"/></g></svg>