<svg width="62" height="53" viewBox="0 0 62 53" fill="none" xmlns="http://www.w3.org/2000/svg">
<defs>
<linearGradient id="paint0_linear_80_162" x1="7.44005" y1="41.83" x2="31.3801" y2="17.89" gradientUnits="userSpaceOnUse">
<stop offset="0.01" stop-color="white" stop-opacity="0.7"/>
<stop offset="1" stop-color="white"/>
</linearGradient>
<linearGradient id="paint1_linear_80_162" x1="202.662" y1="745.003" x2="446.595" y2="403.127" gradientUnits="userSpaceOnUse">
<stop offset="0.01" stop-color="white" stop-opacity="0.7"/>
<stop offset="1" stop-color="white"/>
</linearGradient>
<clipPath id="clip0_80_162">
<rect width="61.29" height="52.31" fill="white"/>
</clipPath>
</defs>
<g clip-path="url(#clip0_80_162)">
<path d="M28.54 28.46C33.9966 28.46 38.42 24.0366 38.42 18.58C38.42 13.1234 33.9966 8.70001 28.54 8.70001C23.0835 8.70001 18.66 13.1234 18.66 18.58C18.66 24.0366 23.0835 28.46 28.54 28.46Z" fill="#F9FF00"/>
<path d="M39.5101 30.17C39.5102 32.8015 38.4732 35.327 36.6237 37.199C34.7742 39.0709 32.2614 40.1384 29.6301 40.17H9.88005C7.51276 40.1872 5.21878 39.3496 3.41962 37.8109C1.62047 36.2723 0.437022 34.136 0.08674 31.7948C-0.263542 29.4535 0.242876 27.0644 1.51294 25.0666C2.783 23.0687 4.73138 21.5964 7.00005 20.92C7.24552 18.4755 8.38227 16.2069 10.1934 14.547C12.0046 12.8871 14.3635 11.9519 16.8201 11.92C19.1695 11.8806 21.4536 12.6935 23.2498 14.2084C25.046 15.7233 26.2326 17.8376 26.5901 20.16H29.6601C32.2879 20.1994 34.7945 21.2717 36.6379 23.145C38.4812 25.0183 39.513 27.5419 39.5101 30.17V30.17Z" fill="url(#paint0_linear_80_162)"/>
<path d="M27.9999 34.19C28 35.816 27.3582 37.3764 26.2141 38.5318C25.0699 39.6871 23.5159 40.3442 21.8899 40.36H9.64994C8.19456 40.3596 6.78762 39.8371 5.6847 38.8875C4.58179 37.938 3.85608 36.6243 3.63942 35.1851C3.42276 33.746 3.72952 32.2768 4.50398 31.0446C5.27843 29.8124 6.46919 28.8989 7.85994 28.47C8.01443 26.9612 8.71831 25.562 9.8376 24.5386C10.9569 23.5152 12.4134 22.9391 13.9299 22.92C15.3859 22.8858 16.8046 23.3824 17.9214 24.3171C19.0383 25.2518 19.777 26.5608 19.9999 28H21.8999C23.5276 28.0184 25.0821 28.6794 26.2247 29.8388C27.3672 30.9982 28.0053 32.5622 27.9999 34.19Z" fill="url(#paint1_linear_80_162)"/>
<path opacity="0.9" d="M12.11 48.63C11.8578 48.9602 11.4864 49.1786 11.0752 49.2384C10.664 49.2982 10.2458 49.1947 9.90997 48.95C9.62973 48.6426 9.48201 48.2371 9.49886 47.8215C9.51571 47.4059 9.69577 47.0137 9.99997 46.73C10.7448 46.1793 11.5859 45.7723 12.48 45.53C12.5534 45.5003 12.6337 45.4919 12.7116 45.5058C12.7895 45.5198 12.862 45.5554 12.9205 45.6087C12.979 45.6621 13.0213 45.7308 13.0425 45.8071C13.0636 45.8834 13.0627 45.9642 13.04 46.04C12.8926 46.9534 12.5773 47.8315 12.11 48.63V48.63Z" fill="#30B3FF"/>
<path opacity="0.9" d="M29 47C28.8891 47.1799 28.7399 47.3331 28.5632 47.4489C28.3864 47.5646 28.1864 47.6401 27.9772 47.6699C27.768 47.6996 27.5548 47.683 27.3528 47.6212C27.1507 47.5593 26.9648 47.4538 26.8081 47.312C26.6514 47.1703 26.5279 46.9958 26.4462 46.8009C26.3645 46.6061 26.3267 46.3956 26.3355 46.1845C26.3442 45.9734 26.3993 45.7668 26.4969 45.5794C26.5945 45.3919 26.7321 45.2283 26.9 45.1C27.6459 44.5511 28.4866 44.1443 29.38 43.9C29.4538 43.8675 29.5354 43.857 29.6151 43.8696C29.6948 43.8823 29.7691 43.9176 29.8292 43.9714C29.8893 44.0252 29.9327 44.0952 29.9541 44.1729C29.9755 44.2507 29.9741 44.333 29.95 44.41C29.7918 45.3235 29.47 46.2009 29 47V47Z" fill="#30B3FF"/>
<path opacity="0.9" d="M21 51.87C20.9268 52.0019 20.8247 52.1155 20.7014 52.2023C20.5781 52.2891 20.4367 52.3469 20.2879 52.3714C20.1391 52.3959 19.9867 52.3863 19.8421 52.3436C19.6974 52.3008 19.5644 52.2258 19.4528 52.1243C19.3412 52.0229 19.2541 51.8974 19.1978 51.7575C19.1416 51.6176 19.1178 51.4667 19.1281 51.3162C19.1384 51.1658 19.1826 51.0196 19.2574 50.8886C19.3322 50.7577 19.4357 50.6453 19.56 50.56C20.0724 50.1776 20.6526 49.896 21.27 49.73C21.3202 49.707 21.3761 49.6993 21.4306 49.7079C21.4851 49.7166 21.5359 49.7411 21.5765 49.7785C21.6171 49.816 21.6458 49.8645 21.6589 49.9182C21.6719 49.9718 21.6689 50.0281 21.65 50.08C21.5484 50.7124 21.3278 51.3198 21 51.87V51.87Z" fill="#30B3FF"/>
<path opacity="0.9" d="M19.8 46.88C19.5852 47.163 19.2683 47.3506 18.917 47.403C18.5657 47.4553 18.2079 47.3681 17.92 47.16C17.6812 46.8955 17.5567 46.5474 17.5735 46.1915C17.5904 45.8356 17.7473 45.5007 18.01 45.26C18.647 44.7894 19.3709 44.4495 20.14 44.26C20.2022 44.2308 20.2716 44.2205 20.3396 44.2305C20.4076 44.2405 20.4712 44.2703 20.5223 44.3161C20.5735 44.362 20.6101 44.4219 20.6274 44.4884C20.6448 44.5549 20.6422 44.625 20.62 44.69C20.4846 45.4645 20.2065 46.2071 19.8 46.88V46.88Z" fill="#30B3FF"/>
</g>
</svg>
