<svg width="62" height="52" viewBox="0 0 62 52" fill="none" xmlns="http://www.w3.org/2000/svg">
<defs>
<linearGradient id="paint0_linear_80_192" x1="7.44005" y1="42.32" x2="31.3801" y2="18.38" gradientUnits="userSpaceOnUse">
<stop offset="0.01" stop-color="white" stop-opacity="0.7"/>
<stop offset="1" stop-color="white"/>
</linearGradient>
<linearGradient id="paint1_linear_80_192" x1="182.275" y1="752.183" x2="425.505" y2="410.748" gradientUnits="userSpaceOnUse">
<stop offset="0.01" stop-color="white" stop-opacity="0.7"/>
<stop offset="1" stop-color="white"/>
</linearGradient>
<clipPath id="clip0_80_192">
<rect width="61.04" height="51.24" fill="white"/>
</clipPath>
</defs>
<g clip-path="url(#clip0_80_192)">
<path d="M28.54 28.15C33.9966 28.15 38.42 23.7266 38.42 18.27C38.42 12.8134 33.9966 8.39001 28.54 8.39001C23.0835 8.39001 18.66 12.8134 18.66 18.27C18.66 23.7266 23.0835 28.15 28.54 28.15Z" fill="#F9FF00"/>
<path d="M39.51 30.65C39.5102 33.2815 38.4732 35.807 36.6237 37.679C34.7742 39.5509 32.2614 40.6184 29.63 40.65H9.88005C7.92979 40.6616 6.02016 40.0928 4.39409 39.016C2.76803 37.9392 1.49903 36.403 0.748535 34.6029C-0.00195807 32.8027 -0.200022 30.8201 0.179541 28.9071C0.559103 26.9941 1.49914 25.2372 2.88005 23.86C4.03337 22.7178 5.44741 21.8735 7.00005 21.4C7.24552 18.9555 8.38226 16.6869 10.1934 15.027C12.0046 13.367 14.3635 12.4319 16.82 12.4C19.1709 12.3609 21.4563 13.1753 23.2527 14.6922C25.0491 16.2091 26.2348 18.3258 26.59 20.65H29.66C32.2861 20.6894 34.7913 21.7603 36.6343 23.6314C38.4774 25.5025 39.5103 28.0236 39.51 30.65Z" fill="url(#paint0_linear_80_192)"/>
<path d="M27.17 34.67C27.1754 36.2986 26.5356 37.863 25.3906 39.0211C24.2456 40.1792 22.6886 40.8368 21.06 40.85H8.85005C7.64431 40.8571 6.46377 40.505 5.45895 39.8385C4.45413 39.172 3.67058 38.2214 3.20819 37.1078C2.74581 35.9942 2.62556 34.7682 2.86276 33.586C3.09996 32.4038 3.68388 31.319 4.54005 30.47C5.24631 29.7801 6.1119 29.2752 7.06005 29C7.21454 27.4912 7.91842 26.092 9.03771 25.0686C10.157 24.0452 11.6135 23.4691 13.13 23.45C14.5756 23.4333 15.9785 23.939 17.0809 24.8742C18.1832 25.8094 18.9109 27.1111 19.13 28.54H21.0301C22.6551 28.5452 24.2123 29.1925 25.3623 30.3406C26.5124 31.4888 27.1621 33.0449 27.17 34.67V34.67Z" fill="url(#paint1_linear_80_192)"/>
<path opacity="0.9" d="M20.93 51.23C21.659 51.23 22.25 50.639 22.25 49.91C22.25 49.181 21.659 48.59 20.93 48.59C20.201 48.59 19.61 49.181 19.61 49.91C19.61 50.639 20.201 51.23 20.93 51.23Z" fill="white"/>
<path opacity="0.9" d="M28.4199 48.98C29.4527 48.98 30.2899 48.1428 30.2899 47.11C30.2899 46.0772 29.4527 45.24 28.4199 45.24C27.3872 45.24 26.5499 46.0772 26.5499 47.11C26.5499 48.1428 27.3872 48.98 28.4199 48.98Z" fill="white"/>
<path opacity="0.9" d="M11.58 47.11C12.6127 47.11 13.45 46.2728 13.45 45.24C13.45 44.2072 12.6127 43.37 11.58 43.37C10.5472 43.37 9.70996 44.2072 9.70996 45.24C9.70996 46.2728 10.5472 47.11 11.58 47.11Z" fill="white"/>
</g>
</svg>
