<svg viewBox="0 0 39.51 28.42" xmlns="http://www.w3.org/2000/svg" xmlns:xlink="http://www.w3.org/1999/xlink"><linearGradient id="a" gradientUnits="userSpaceOnUse" x1="7.44" x2="31.38" y1="29.9" y2="5.95"><stop offset=".01" stop-color="#fff" stop-opacity=".7"/><stop offset="1" stop-color="#fff"/></linearGradient><linearGradient id="b" x1="7.35" x2="22.14" xlink:href="#a" y1="29.46" y2="14.66"/><path d="m39.51 18.23a10 10 0 0 1 -9.88 10h-19.75a9.83 9.83 0 0 1 -2.88-19.23 10 10 0 0 1 9.82-9 9.72 9.72 0 0 1 9.77 8.24h3.07a10 10 0 0 1 9.85 9.99z" fill="url(#a)"/><path d="m27.17 22.25a6.16 6.16 0 0 1 -6.11 6.17h-12.21a6.07 6.07 0 0 1 -6.1-6.07 6 6 0 0 1 1.79-4.3 6.14 6.14 0 0 1 2.52-1.52 6.18 6.18 0 0 1 6.07-5.53 6 6 0 0 1 6 5.1h1.9a6.16 6.16 0 0 1 6.14 6.15z" fill="url(#b)"/></svg>